<svg width="24" height="24" viewBox="0 0 24 24" fill="none" xmlns="http://www.w3.org/2000/svg">
<g id="home-circle" clip-path="url(#clip0_0_452)">
<g id="Clip path group">
<mask id="mask0_0_452" style="mask-type:luminance" maskUnits="userSpaceOnUse" x="0" y="0" width="24" height="24">
<g id="clip0_17_34">
<path id="Vector" d="M24 0H0V24H24V0Z" fill="white"/>
</g>
</mask>
<g mask="url(#mask0_0_452)">
<g id="Group">
<path id="Vector_2" d="M18.5502 10.2832C18.5502 14.8495 14.8511 18.5487 10.2847 18.5487C5.71834 18.5487 2.01923 14.8495 2.01923 10.2832C2.01923 5.71682 5.71834 2.0177 10.2847 2.0177C14.8511 2.0177 18.5502 5.71682 18.5502 10.2832Z" stroke="#2C0958" stroke-width="1.5" stroke-miterlimit="10" stroke-linecap="round" stroke-linejoin="round"/>
<path id="Vector_3" d="M24.0021 15.7345C24.0021 20.3009 20.303 24 15.7366 24C11.1703 24 7.47118 20.3009 7.47118 15.7345C7.47118 11.1681 11.1703 7.46899 15.7366 7.46899C20.303 7.4867 24.0021 11.1858 24.0021 15.7345Z" fill="url(#paint0_linear_0_452)"/>
</g>
</g>
</g>
</g>
<defs>
<linearGradient id="paint0_linear_0_452" x1="7.47118" y1="15.7345" x2="20.4818" y2="10.4784" gradientUnits="userSpaceOnUse">
<stop stop-color="#FF62B7"/>
<stop offset="1" stop-color="#9F53FF"/>
</linearGradient>
<clipPath id="clip0_0_452">
<rect width="24" height="24" fill="white"/>
</clipPath>
</defs>
</svg>
