<svg width="95" height="92" viewBox="0 0 95 92" fill="none" xmlns="http://www.w3.org/2000/svg">
<g id="home-star">
<path id="Vector" d="M60.701 45.673C60.701 57.9489 59.0654 69.0215 56.4481 76.9909C55.1377 80.9809 53.5991 84.1376 51.9387 86.2759C50.2683 88.4272 48.5945 89.4044 47.0103 89.4044C45.4261 89.4044 43.7523 88.4272 42.0819 86.2759C40.4215 84.1376 38.8829 80.9809 37.5725 76.9909C34.9552 69.0215 33.3196 57.9489 33.3196 45.673C33.3196 33.3971 34.9552 22.3245 37.5725 14.3552C38.8829 10.3651 40.4215 7.20848 42.0819 5.07016C43.7523 2.91886 45.4261 1.94165 47.0103 1.94165C48.5945 1.94165 50.2683 2.91886 51.9387 5.07016C53.5991 7.20848 55.1377 10.3651 56.4481 14.3552C59.0654 22.3245 60.701 33.3971 60.701 45.673Z" stroke="url(#paint0_linear_0_448)" stroke-width="2"/>
<path id="Vector_2" d="M47.5 58.3278C34.7239 58.3278 23.1962 56.7541 14.8955 54.2336C10.7389 52.9715 7.44801 51.4888 5.21839 49.8881C2.96479 48.2703 1.97939 46.6732 1.97939 45.2021C1.97939 43.731 2.96479 42.1339 5.21839 40.5161C7.44801 38.9155 10.7389 37.4327 14.8955 36.1706C23.1962 33.6501 34.7239 32.0764 47.5 32.0764C60.2761 32.0764 71.8038 33.6501 80.1045 36.1706C84.2611 37.4327 87.552 38.9155 89.7816 40.5161C92.0352 42.1339 93.0206 43.731 93.0206 45.2021C93.0206 46.6732 92.0352 48.2703 89.7816 49.8881C87.552 51.4888 84.2611 52.9715 80.1045 54.2336C71.8038 56.7541 60.2761 58.3278 47.5 58.3278Z" stroke="url(#paint1_linear_0_448)" stroke-width="2"/>
<path id="Vector_3" d="M47.0103 16.9509L51.9965 40.4079L76.3917 45.2023L51.9965 49.9968L47.0103 73.4537L42.0241 49.9968L17.6288 45.2023L42.0241 40.4079L47.0103 16.9509Z" fill="url(#paint2_linear_0_448)" stroke="#F8F0FD" stroke-width="1.5"/>
</g>
<defs>
<linearGradient id="paint0_linear_0_448" x1="32.3196" y1="45.673" x2="58.7528" y2="42.1659" gradientUnits="userSpaceOnUse">
<stop stop-color="#FF62B7"/>
<stop offset="1" stop-color="#9F53FF"/>
</linearGradient>
<linearGradient id="paint1_linear_0_448" x1="47.5" y1="31.0764" x2="50.6257" y2="56.557" gradientUnits="userSpaceOnUse">
<stop stop-color="#FF62B7"/>
<stop offset="1" stop-color="#9F53FF"/>
</linearGradient>
<linearGradient id="paint2_linear_0_448" x1="17.6288" y1="45.2023" x2="63.3544" y2="25.9911" gradientUnits="userSpaceOnUse">
<stop stop-color="#FF62B7"/>
<stop offset="1" stop-color="#9F53FF"/>
</linearGradient>
</defs>
</svg>
