<svg width="64" height="73" viewBox="0 0 64 73" fill="none" xmlns="http://www.w3.org/2000/svg">
<g id="liststar-2-img" clip-path="url(#clip0_0_491)">
<path id="Vector" d="M10.3855 26.8659L0 29.1164L10.3855 31.3669L12.9819 40.3692L16.0109 31.3669L26.3965 29.1164L16.0109 26.8659L12.5491 16.7384L10.3855 26.8659Z" fill="#2C0958"/>
<path id="Vector_2" d="M54.07 34.4615L48.2 35.7743L54.07 37.0872L55.5376 42.3384L57.2497 37.0872L63.1197 35.7743L57.2497 34.4615L55.2929 28.5538L54.07 34.4615Z" fill="#2C0958"/>
<path id="Vector_3" d="M20.376 65.4066L17.2153 66.1568L20.376 66.907L21.1663 69.9077L22.0882 66.907L25.249 66.1568L22.0882 65.4066L21.0346 62.0308L20.376 65.4066Z" fill="#2C0958"/>
<path id="Vector_4" d="M4.96698 64.9846L0 66.2974L4.96698 67.6103L6.20872 72.8615L7.65742 67.6103L12.6244 66.2974L7.65742 64.9846L6.00176 59.0769L4.96698 64.9846Z" fill="#2C0958"/>
<path id="Vector_5" d="M32.0232 6.75165L25.25 8.25201L32.0232 9.75238L33.7165 15.7538L35.6919 9.75238L42.4651 8.25201L35.6919 6.75165L33.4342 0L32.0232 6.75165Z" fill="#2C0958"/>
<path id="Vector_6" d="M39.8839 26.022L36.7231 26.7721L39.8839 27.5223L40.674 30.523L41.5959 27.5223L44.7568 26.7721L41.5959 26.022L40.5424 22.6461L39.8839 26.022Z" fill="#2C0958"/>
</g>
<defs>
<clipPath id="clip0_0_491">
<rect width="64" height="72.8615" fill="white"/>
</clipPath>
</defs>
</svg>
